<svg width="40" height="40" viewBox="0 0 40 40" fill="none" xmlns="http://www.w3.org/2000/svg">
<path d="M28.5992 0H10.9003C4.8899 0 0 4.89013 0 10.9006V28.5994C0 34.6101 4.8899 39.5 10.9003 39.5H28.5992C34.6101 39.5 39.5 34.6099 39.5 28.5994V10.9006C39.5002 4.89013 34.6101 0 28.5992 0ZM35.9956 28.5994C35.9956 32.6777 32.6777 35.9954 28.5994 35.9954H10.9003C6.82235 35.9956 3.50463 32.6777 3.50463 28.5994V10.9006C3.50463 6.82258 6.82235 3.50463 10.9003 3.50463H28.5992C32.6774 3.50463 35.9954 6.82258 35.9954 10.9006V28.5994H35.9956Z" fill="white"/>
<path d="M19.7504 9.5723C14.1381 9.5723 9.57227 14.1381 9.57227 19.7504C9.57227 25.3625 14.1381 29.9281 19.7504 29.9281C25.3627 29.9281 29.9286 25.3625 29.9286 19.7504C29.9286 14.1381 25.3627 9.5723 19.7504 9.5723ZM19.7504 26.4233C16.0708 26.4233 13.0769 23.4298 13.0769 19.7502C13.0769 16.0703 16.0706 13.0767 19.7504 13.0767C23.4303 13.0767 26.4239 16.0703 26.4239 19.7502C26.4239 23.4298 23.43 26.4233 19.7504 26.4233Z" fill="white"/>
<path d="M30.3552 6.60062C29.68 6.60062 29.0167 6.87398 28.5398 7.35294C28.0606 7.82957 27.7852 8.49312 27.7852 9.17068C27.7852 9.84614 28.0609 10.5094 28.5398 10.9884C29.0165 11.465 29.68 11.7407 30.3552 11.7407C31.0328 11.7407 31.694 11.465 32.173 10.9884C32.6519 10.5094 32.9253 9.84591 32.9253 9.17068C32.9253 8.49312 32.6519 7.82957 32.173 7.35294C31.6963 6.87398 31.0328 6.60062 30.3552 6.60062Z" fill="white"/>
</svg>
