<svg width="43" height="43" viewBox="0 0 43 43" fill="none" xmlns="http://www.w3.org/2000/svg">
<path d="M10.0065 13.786H1.37421C0.991096 13.786 0.680664 14.0966 0.680664 14.4796V42.2115C0.680664 42.5947 0.991096 42.9051 1.37421 42.9051H10.0065C10.3896 42.9051 10.7001 42.5947 10.7001 42.2115V14.4796C10.7001 14.0966 10.3896 13.786 10.0065 13.786Z" fill="white"/>
<path d="M5.69625 0C2.55531 0 0 2.55254 0 5.69001C0 8.82887 2.55531 11.3824 5.69625 11.3824C8.8347 11.3824 11.3879 8.82873 11.3879 5.69001C11.3881 2.55254 8.8347 0 5.69625 0Z" fill="white"/>
<path d="M31.969 13.0974C28.502 13.0974 25.939 14.5878 24.3845 16.2813V14.4802C24.3845 14.0972 24.0741 13.7866 23.691 13.7866H15.424C15.0409 13.7866 14.7305 14.0972 14.7305 14.4802V42.2121C14.7305 42.5952 15.0409 42.9057 15.424 42.9057H24.0375C24.4206 42.9057 24.731 42.5952 24.731 42.2121V28.4912C24.731 23.8676 25.9869 22.0663 29.21 22.0663C32.7201 22.0663 32.9991 24.954 32.9991 28.7291V42.2122C32.9991 42.5954 33.3095 42.9058 33.6926 42.9058H42.3093C42.6924 42.9058 43.0028 42.5954 43.0028 42.2122V27.0008C43.0028 20.1256 41.6919 13.0974 31.969 13.0974Z" fill="white"/>
</svg>
