<svg width="46" height="38" viewBox="0 0 46 38" fill="none" xmlns="http://www.w3.org/2000/svg">
<path d="M44.9576 4.34641C44.235 4.66692 43.492 4.93743 42.7328 5.15704C43.6316 4.14059 44.3169 2.94459 44.7352 1.63582C44.829 1.34246 44.7318 1.02135 44.4906 0.829484C44.2498 0.637471 43.9152 0.614471 43.65 0.771613C42.0378 1.72782 40.2984 2.415 38.4746 2.81683C36.6374 1.02165 34.1421 0 31.5626 0C26.1175 0 21.6875 4.4298 21.6875 9.87471C21.6875 10.3036 21.7147 10.73 21.7684 11.1505C15.0116 10.5573 8.72994 7.23624 4.41633 1.94491C4.2626 1.75631 4.02577 1.65466 3.78331 1.6741C3.5407 1.6931 3.32272 1.82991 3.20015 2.04017C2.32526 3.54141 1.86273 5.25839 1.86273 7.00535C1.86273 9.38474 2.71225 11.6423 4.21289 13.4063C3.7566 13.2483 3.31381 13.0508 2.89121 12.8162C2.66432 12.6899 2.38743 12.6918 2.16203 12.8211C1.93648 12.9503 1.79507 13.188 1.78913 13.4479C1.7881 13.4916 1.7881 13.5354 1.7881 13.5798C1.7881 17.1314 3.69962 20.329 6.6221 22.0718C6.37103 22.0468 6.12011 22.0104 5.87082 21.9628C5.61381 21.9137 5.34953 22.0037 5.17622 22.1997C5.00261 22.3956 4.94518 22.6686 5.02516 22.9179C6.1069 26.2952 8.89198 28.7794 12.2589 29.5367C9.46639 31.2858 6.27295 32.2019 2.92059 32.2019C2.22109 32.2019 1.51759 32.1608 0.82907 32.0794C0.487038 32.0387 0.159993 32.2407 0.0435089 32.5659C-0.072975 32.8913 0.0504831 33.2541 0.34147 33.4407C4.64811 36.202 9.62783 37.6615 14.742 37.6615C24.7958 37.6615 31.0852 32.9206 34.5908 28.9433C38.9623 23.9841 41.4695 17.4199 41.4695 10.934C41.4695 10.6631 41.4653 10.3895 41.457 10.1167C43.1817 8.81731 44.6666 7.2447 45.8749 5.4372C46.0585 5.16268 46.0386 4.79988 45.826 4.54717C45.6136 4.29432 45.2597 4.21256 44.9576 4.34641Z" fill="white"/>
</svg>
